---
title: ".MOV file woes. :("
date: 2013-07-10
forum: New to Ubuntu
---

### Post by MissMonicaE on 2013-07-10
Hi everybody. I'm trying to play a .mov file, to no avail. My default, Movie Player, tells me that the file "contains no playable streams." Firefox is set to use Quicktime Plug-in 7.6.6, or at least that's what my Application Preferences say. When I tried to play it in Firefox, it didn't work--it just sat there. The About option there says it's the Totem Browser Plugin 3.0.1 using GStreamer 0.10.36.. I have the VLC browser plugin but I can't figure out how to tell Firefox to use it. I downloaded the video and tried the VLC player. Around 0:10, it made a hiccoughing sound and the picture froze while the sound cut out entirely; around 0:47 it gave up and showed me the traffic cone. Then I downloaded MPlayer but that won't work for some reason. I've attached a screenshot because I don't know how to explain this problem. I don't even understand what a socket is.
[ATTACH=CONFIG]244575[/ATTACH]
Does anyone have any suggestions?
Thank you!

---

### Post by mastablasta on 2013-07-10
it says in the error report "maybe broken file"

asuming it's not broken - make sure oyu have all codecs installed (restricted extras package as well as libdvdcss).

next you need to find out what format the movie is in. is .mov just a container like .avi?

---

### Post by MissMonicaE on 2013-07-16
How do I check my codecs? I tried installing various codecs listed at [https://projects.gnome.org/totem/#codecs](https://projects.gnome.org/totem/#codecs) using sudo apt-get but it always told me "E: invalid operation *plugin I was trying to install*". So I downloaded the package here: [http://www.mplayerhq.hu/design7/dload.html#binary_codecs](http://www.mplayerhq.hu/design7/dload.html#binary_codecs) and unpacked it using tar xjvf and then put all the resulting files in a folder named "codecs" which I put in /usr/lib. Was that right?

---

### Post by dannyboy79 on 2013-07-16
no, you didn't need to install those mplayer codec's. those are for very rare and unique codecs. if you have unrestricted-extras installed you should be fine. ([https://help.ubuntu.com/community/RestrictedFormats](https://help.ubuntu.com/community/RestrictedFormats))

are you sure you downloaded it completely and didn't move it before it was done being downloaded?

---

### Post by varunendra on 2013-07-16
I remember still having some particular .mov files that just refuse to play audio on totem (play video fine), while they play only audio on some other one (probably VLC). They did play with a lot of glitches on windows (there was no glitch in Linux, but only one stream at a time). So it seems that there are some non-standard .mov formats (probably the output of a buggy software or non-standard settings) that just refuse to play well with the available codecs. Since those were online tutorial files, I'd assume they must have been playing fine for the uploader.

Anyway,

@MissMonicaE,

You can get some codec details by pressing Ctrl+J while the file is playing on VLC. But the best program to get full codec details is MediaInfo. Install it with GUI with -
```
sudo apt-get install mediainfo-gui
```
After installation you can find it in dash or applications menu.

---

### Post by MissMonicaE on 2013-07-16
I installed ubuntu-restricted-extras, which included "gstreamer0.10-plugins-bad-multiverse libavcodec-extra-53 libavutil-extra-51".
MediaInfo told me the file is an MPEG-4 (Quicktime) file. Do I need a special codec for that?
Thanks!

---

### Post by I2k4 on 2013-07-16
If VLC doesn't play it, something is wrong with your installation:

[http://www.videolan.org/vlc/index.html](http://www.videolan.org/vlc/index.html)

Should be in your repositories.  Not worth fooling around with anything else.

---

### Post by monkeybrain2012 on 2013-07-16
It should just play in Smplayer.

---

### Post by dannyboy79 on 2013-07-16
"it should just play" is what you're all saying unless the mov file is corrupt. it's missing the moov atom!

---

### Post by MissMonicaE on 2013-07-16
So if I'm reinstalling VLC, what application should I tell Firefox to use for apt links, and where do I find it? Or to do it from the command line, which mirror should I use to add squeeze-backports to my sources.list?

---

### Post by varunendra on 2013-07-16
[COLOR="#FF0000"]EDIT1 : I'm not trying to hijack the thread, I don't need help with the below, just posting as an example of an apparently ok but not compatible file. Maybe OP can post similar details to give us more insight into the status of the file and codecs.[/COLOR]

Just for the kick of it, I dug up and attached one of the files that don't play well on any of these -
[LIST]
[*]VLC - [COLOR="#800000"]Only sound[/COLOR]
[*]SMplayer - [COLOR="#800000"]Only sound[/COLOR]
[*]Xine - nothing
[*]Totem (default "Movie player" in Ubuntu) - [COLOR="#0000CD"]Only video[/COLOR]
[/LIST]

It is just one of a collection of about a hundred similar .mov files in the collection. I'm posting these details hoping someone knows better about these codecs/possible issues and can shed some light on it.

MediaInfo > Show > Text gives this -
```
General
Complete name                            : /home/varun/Desktop/0101.mov
Format                                   : QuickTime
Format/Info                              : Original Apple specifications
File size                                : 178 KiB
Duration                                 : 1mn 44s
Overall bit rate                         : 14.0 Kbps
Movie name                               : Virtual Training Company, INC.
Movie name/More                          : VTC Movies
Encoded date                             : UTC 2001-09-14 12:37:30
Tagged date                              : UTC 2001-09-14 12:37:30
Writing library                          : Apple QuickTime
Copyright                                : Copyright 1996-2000

Video
ID                                       : 1
Format                                   : smc 
Codec ID                                 : smc 
Duration                                 : 1mn 44s
Bit rate                                 : 4 252 bps
Width                                    : 640 pixels
Height                                   : 480 pixels
Display aspect ratio                     : 4:3
Frame rate mode                          : Constant
Frame rate                               : 1.000 fps
Bits/(Pixel*Frame)                       : 0.014
Stream size                              : 54.0 KiB (30%)
Language                                 : English
Encoded date                             : UTC 2001-09-13 19:07:46
Tagged date                              : UTC 2001-09-14 12:37:30

Audio
ID                                       : 2
Format                                   : QCELP
Codec ID                                 : Qclp
Codec ID/Info                            : Qualcomm PureVoice
Duration                                 : 1mn 43s
Bit rate mode                            : Constant
Bit rate                                 : 88.2 Kbps
Channel(s)                               : 1 channel
Sampling rate                            : 11.025 KHz
Bit depth                                : 16 bits
Stream size                              : 1.09 MiB
Language                                 : English
Encoded date                             : UTC 2001-09-13 19:07:46
Tagged date                              : UTC 2001-09-14 12:37:30
```

**dpkg --get-selections | grep gstreamer** returns -
```
bluez-gstreamer					install
gir1.2-gstreamer-0.10				install
gstreamer0.10-alsa				install
gstreamer0.10-ffmpeg				install
gstreamer0.10-fluendo-mp3			install
gstreamer0.10-gconf				install
gstreamer0.10-nice				install
gstreamer0.10-plugins-bad			install
gstreamer0.10-plugins-bad-multiverse		install
gstreamer0.10-plugins-base			install
gstreamer0.10-plugins-base-apps			install
gstreamer0.10-plugins-good			install
gstreamer0.10-plugins-good:i386			deinstall
gstreamer0.10-plugins-ugly			install
gstreamer0.10-pulseaudio			install
gstreamer0.10-tools				install
gstreamer0.10-x					install
libgstreamer-plugins-bad0.10-0			install
libgstreamer-plugins-base0.10-0			install
libgstreamer-plugins-base0.10-0:i386		install
libgstreamer0.10-0				install
libgstreamer0.10-0:i386				install
phonon-backend-gstreamer			install
```
So I have the good, the bad, the ugly and the others (had also tried the same files with only one at a time)

I guess VLC is not a miracle. :P

---

### Post by monkeybrain2012 on 2013-07-16
> **varunendra said:**
> 

Just for the kick of it, I dug up and attached one of the files that don't play well on any of these -
[LIST]
[*]VLC - [COLOR=#800000]Only sound[/COLOR] 
[*]SMplayer - [COLOR=#800000]Only sound[/COLOR] 
[*]Xine - nothing 
[*]Totem (default "Movie player" in Ubuntu) - [COLOR=#0000CD]Only video[/COLOR] 
[/LIST]

:P

I downloaded your file

VLC - Only Sound
Totem - Only video

Smplayer -- plays perfectly with video and Sound. :) But it uses as backend a self compiled version of mplayer2.

---

### Post by varunendra on 2013-07-16
> **monkeybrain2012 said:**
> I downloaded your file

VLC - Only Sound
Totem - Only video

Smplayer -- plays perfectly with video and Sound. :) But it uses as backend a self compiled version of mplayer2.

Wow ! At least now I have a confirmation that it is playable on Ubuntu. :)

Once digging for x264 codecs (for encoding), I read in some wiki or tutorial page that there is some critical difference in the ffmpeg libraries that are compiled from source and those available in Ubuntu repositories. That or something like that maybe playing a role here. But I can't dare to go into details of that now. ;)

@ MissMonicaE,
I suggest you post the full codec details of your file like I posted mine (in MediaInfo GUI, goto "Show" in menubar > Text). If the details match, you can use monkeybrain2012's solution. Even if it doesn't match, at least we'll have much more details about the exact codec and format used.

But of course make sure first that the file itself is intact and not a broken download.

---

### Post by monkeybrain2012 on 2013-07-16
> **varunendra said:**
> Wow ! At least now I have a confirmation that it is playable on Ubuntu. :)

Once digging for x264 codecs (for encoding), I read in some wiki or tutorial page that there is some critical difference in the ffmpeg libraries that are compiled from source and those available in Ubuntu repositories. That or something like that maybe playing a role here. But I can't dare to go into details of that now. ;)

.

I tested your video again on 13.04 (it was on 12.04)

Totem (aka "Video) - Only video

Vlc - not available, not installed

Smplayer - Works perfectly again. This time the backend is just stock mplayer2 from Ubuntu's universe, no compiling, no ppa,

So it seems that mplayer2 is the reason that it works, maybe you can install it in place of mplayer and see if it plays on Smplayer.

---

### Post by MissMonicaE on 2013-07-16
MediaInfo gives me
```
General
Complete name                            : /home/monicagorman/Desktop/RTam.mov
Format                                   : MPEG-4
Format profile                           : QuickTime
Codec ID                                 : qt  
File size                                : 400 KiB
```
or if I check Debug->Complete it gives me
```
General
Count                                    : 278
Count of stream of this kind             : 1
Kind of stream                           : General
Kind of stream                           : General
Stream identifier                        : 0
Inform                                   : MPEG-4 (QuickTime): 400 KiB
Complete name                            : /home/monicagorman/Desktop/RTam.mov
Folder name                              : /home/monicagorman/Desktop
File name                                : RTam
File extension                           : mov
Format                                   : MPEG-4
Format                                   : MPEG-4
Format/Extensions usually used           : mp4 m4v m4a m4b m4p 3gpp 3gp 3gpp2 3g2 k3g jpm jpx mqv ismv isma f4v
Commercial name                          : MPEG-4
Format profile                           : QuickTime
Internet media type                      : video/mp4
Codec ID                                 : qt  
Codec ID/Url                             : http://www.apple.com/quicktime/download/standalone.html
Codec                                    : MPEG-4
Codec                                    : MPEG-4
Codec/Extensions usually used            : mp4 m4v m4a m4b m4p 3gpp 3gp 3gpp2 3g2 k3g jpm jpx mqv ismv isma f4v
File size                                : 409525
File size                                : 400 KiB
File size                                : 400 KiB
File size                                : 400 KiB
File size                                : 400 KiB
File size                                : 399.9 KiB
Stream size                              : 409525
Stream size                              : 400 KiB (100%)
Stream size                              : 400 KiB
Stream size                              : 400 KiB
Stream size                              : 400 KiB
Stream size                              : 399.9 KiB
Stream size                              : 400 KiB (100%)
Proportion of this stream                : 1.00000
HeaderSize                               : 113364
DataSize                                 : 296161
FooterSize                               : 0
IsStreamable                             : No
File last modification date              : UTC 2013-07-16 18:00:40
File last modification date (local)      : 2013-07-16 14:00:40
```

To be honest, I have no idea what most of this means. :(

Varunendra, I tried to play your video. Movie Player gave me video but no audio, and VLC and MPlayer gave me audio but no video. I downloaded SMPlayer, which gave me audio but no video and couldn't get anywhere with the R. Tam Sessions. :(

---

### Post by varunendra on 2013-07-16
> **monkeybrain2012 said:**
> Smplayer - Works perfectly again. This time the backend is just stock mplayer2 from Ubuntu's universe, no compiling, no ppa,

So it seems that mplayer2 is the reason that it works, maybe you can install it in place of mplayer and see if it plays on Smplayer.
OMG! You are so right ! I can play the video now. :D

I never even tried mplayer2, maybe because smplayer lists only "mplayer" as dependency. Only after looking at mplayer2 package did I realize that it 'replaces' mplayer, without replacing anything else (and adding a lot more stuff).


@ MissMonicaE,
This may not help you directly playing the video in browser (unless the existing plugins can use its codec libraries, which I doubt), but may get us a step closer if you try the solution of mplayer2. The terminal way to install mplayer2 (the actual player) and smplayer (its GUI frontend) -
```
sudo apt-get install mplayer2 smplayer
```
Then confirm you have installed mplayer2, not mplayer -
```
dpkg --get-selections | grep mplayer2
```
You should get "mplayer2       install" as output.

Then you can try smplayer from menu or dash to see if it can play your problematic video. If it can, try playing in the browser too and let us know if you can.

**PS:**
Doesn't your version of MediaInfo GUI have the "Show > Text" option in its menu-bar?
The details you posted are clearly much different than mine, which is not an issue, but it doesn't show its duration which is what is bothering me. Plus there is no info about audio in it. Are you sure the file is intact?

---

### Post by MissMonicaE on 2013-07-17
Okay, I've got MPlayer2 installed. Now when I play Varunendra's video, I get audio but no video. I have one version of the R. Tam Sessions that claims to be 5:37 long, and it plays fine for about 0:47 and then stops. The other one still won't play on anything, so I'm officially convinced it's corrupted or something. The one that's 5:37 long played on VLC for me, but after 0:47, it opened a new window and I had to switch to a new audio track for every clip. -_- At this point I've watched a man pull a pen out of his larynx and choke to death on his own blood about fifty times.

---

### Post by varunendra on 2013-07-18
> **MissMonicaE said:**
> Okay, I've got MPlayer2 installed. Now when I play Varunendra's video, I get audio but no video.
That suggests you may be missing some essential codec. If you are still on it, please show us the output of -
```
dpkg --get-selections | egrep 'gstreamer|ffmpeg|codec|mplayer'
```
It'll show all the major components we are suspecting.

> At this point I've watched a man pull a pen out of his larynx and choke to death on his own blood about fifty times.
That's horrible! Hope you'd be able to sort it out after all, and this horror show will end soon. :)

---

### Post by MissMonicaE on 2013-07-18
Okay, here we go:
```
monicagorman@Charlie:~$ dpkg --get-selections | egrep 'gstreamer|ffmpeg|codec|mplayer'
bluez-gstreamer                    install
chromium-codecs-ffmpeg                install
gir1.2-gstreamer-0.10                install
gstreamer0.10-alsa                install
gstreamer0.10-ffmpeg                install
gstreamer0.10-fluendo-mp3            install
gstreamer0.10-gconf                install
gstreamer0.10-nice                install
gstreamer0.10-plugins-bad            install
gstreamer0.10-plugins-bad-multiverse        install
gstreamer0.10-plugins-base            install
gstreamer0.10-plugins-base-apps            install
gstreamer0.10-plugins-good            install
gstreamer0.10-plugins-ugly            install
gstreamer0.10-pulseaudio            install
gstreamer0.10-tools                install
gstreamer0.10-x                    install
libavcodec-extra-53                install
libavcodec53                    deinstall
libgstreamer-plugins-bad0.10-0            install
libgstreamer-plugins-base0.10-0            install
libgstreamer0.10-0                install
mplayer                        deinstall
mplayer-gui                    install
mplayer-skins                    install
mplayer2                    install
phonon-backend-gstreamer            install
smplayer                    install
smplayer-skins                    install
smplayer-themes                    install
```

---

### Post by maddogz007 on 2013-07-18
I've always had issues with video playback on linux machines. The best option is to compile mplayer from source. Just follow Andrew.46's guide you will never look back.

[http://ubuntuforums.org/showthread.php?t=1542240](http://ubuntuforums.org/showthread.php?t=1542240)

---

### Post by varunendra on 2013-07-18
Apparently all the necessities that I have are present in your output too. Perhaps it may be the player's choice of codecs then (based on which one of the possibly conflicting one was installed last, happens with vlc sometimes, not sure about mplayer/2), but I've no idea how to sort that out :|

---

